<svg xmlns="http://www.w3.org/2000/svg" width="40" height="41" viewBox="0 0 40 41" fill="none"><g id="Icon"><g id="Vector"><path d="M17.1167 20.769H22.8833C24.4333 20.769 25.6 19.3857 25.35 17.8524L24.85 14.869C24.45 12.5024 22.4 10.769 20 10.769C17.6 10.769 15.55 12.5024 15.15 14.8857L14.65 17.869C14.4 19.3857 15.5667 20.769 17.1167 20.769Z" fill="#0259F7"></path><path d="M2.76667 19.2857C2.55 19.719 2.46667 20.2357 2.6 20.7524C2.86667 21.9024 3.86667 22.469 5.15 22.419C5.15 22.419 7.63333 22.419 8.4 22.419C9.78333 22.419 10.9167 21.4524 10.9167 20.269C10.9167 20.0357 10.8667 19.819 10.8 19.6024C10.7833 19.5524 10.7833 19.519 10.8167 19.469C10.9667 19.2024 11.05 18.9024 11.05 18.5857C11.05 18.069 10.8167 17.5857 10.45 17.219C10.4 17.169 10.4 17.119 10.4167 17.0524C10.5333 16.719 10.5333 16.3357 10.4333 15.969C10.1667 15.2524 9.51667 14.769 8.78333 14.7357C8.73333 14.7357 8.7 14.719 8.66667 14.6857C8.38333 14.3357 7.86667 14.1024 7.28333 14.1024C6.78333 14.1024 6.33333 14.269 6.03333 14.5357C5.98333 14.5857 5.93333 14.5857 5.88333 14.569C5.65 14.469 5.38333 14.419 5.11667 14.419C4.03333 14.419 3.15 15.2357 3.05 16.2857C3.05 16.319 3.03333 16.3524 3 16.3857C2.51667 16.819 2.23333 17.469 2.31667 18.1357C2.36667 18.5024 2.51667 18.8524 2.73333 19.1357C2.78333 19.169 2.78333 19.2357 2.76667 19.2857Z" fill="#0259F7"></path><path d="M27.0667 23.519C25.1167 22.6524 22.7167 22.019 20 22.019C17.2833 22.019 14.8833 22.669 12.9333 23.519C11.1333 24.319 10 26.119 10 28.0857V29.1024C10 30.019 10.75 30.769 11.6667 30.769H28.3333C29.25 30.769 30 30.019 30 29.1024V28.0857C30 26.119 28.8667 24.319 27.0667 23.519Z" fill="#0259F7"></path><path d="M2.03333 25.069C0.8 25.6024 0 26.8024 0 28.1524V29.1024C0 30.019 0.75 30.769 1.66667 30.769H7.5V28.0857C7.5 26.7024 7.88333 25.4024 8.55 24.269C7.93333 24.169 7.31667 24.1024 6.66667 24.1024C5.01667 24.1024 3.45 24.4524 2.03333 25.069Z" fill="#0259F7"></path><path d="M37.9667 25.069C36.55 24.4524 34.9833 24.1024 33.3333 24.1024C32.6833 24.1024 32.0667 24.169 31.45 24.269C32.1167 25.4024 32.5 26.7024 32.5 28.0857V30.769H38.3333C39.25 30.769 40 30.019 40 29.1024V28.1524C40 26.8024 39.2 25.6024 37.9667 25.069Z" fill="#0259F7"></path><path d="M36.6667 19.1024V18.269C36.6667 16.4357 35.1667 14.9357 33.3333 14.9357H30C29.3 14.9357 28.9167 15.7357 29.35 16.2857L30.5167 17.3357C30.2 17.8524 30 18.4524 30 19.1024C30 20.9357 31.5 22.4357 33.3333 22.4357C35.1667 22.4357 36.6667 20.9357 36.6667 19.1024Z" fill="#0259F7"></path></g></g></svg>