<svg xmlns="http://www.w3.org/2000/svg" width="40" height="41" viewBox="0 0 40 41" fill="none"><g id="Icon"><path id="Vector" d="M33.334 3.38232H6.66732C4.83398 3.38232 3.35065 4.88232 3.35065 6.71566L3.33398 36.7157L10.0007 30.049H33.334C35.1673 30.049 36.6673 28.549 36.6673 26.7157V6.71566C36.6673 4.88232 35.1673 3.38232 33.334 3.38232ZM28.334 23.3823H11.6673C10.7507 23.3823 10.0007 22.6323 10.0007 21.7157C10.0007 20.799 10.7507 20.049 11.6673 20.049H28.334C29.2507 20.049 30.0007 20.799 30.0007 21.7157C30.0007 22.6323 29.2507 23.3823 28.334 23.3823ZM28.334 18.3823H11.6673C10.7507 18.3823 10.0007 17.6323 10.0007 16.7157C10.0007 15.799 10.7507 15.049 11.6673 15.049H28.334C29.2507 15.049 30.0007 15.799 30.0007 16.7157C30.0007 17.6323 29.2507 18.3823 28.334 18.3823ZM28.334 13.3823H11.6673C10.7507 13.3823 10.0007 12.6323 10.0007 11.7157C10.0007 10.799 10.7507 10.049 11.6673 10.049H28.334C29.2507 10.049 30.0007 10.799 30.0007 11.7157C30.0007 12.6323 29.2507 13.3823 28.334 13.3823Z" fill="#0259F7"></path></g></svg>