<svg xmlns="http://www.w3.org/2000/svg" width="40" height="41" viewBox="0 0 40 41" fill="none"><g id="Icon"><path id="Vector" d="M20.0007 3.38232C12.184 3.38232 5.83398 9.73232 5.83398 17.549C5.83398 25.3657 12.184 31.7157 20.0007 31.7157H20.834V36.7157C28.934 32.8157 34.1673 25.049 34.1673 17.549C34.1673 9.73232 27.8173 3.38232 20.0007 3.38232ZM21.6673 27.549H18.334V24.2157H21.6673V27.549ZM22.334 19.5823C22.3173 19.599 22.3007 19.6323 22.284 19.6657C22.2007 19.799 22.1173 19.9323 22.0507 20.0657C22.0173 20.1157 22.0007 20.1823 21.984 20.249C21.934 20.3657 21.884 20.4823 21.8507 20.599C21.734 20.949 21.684 21.3157 21.684 21.7323H18.334C18.334 20.8823 18.4673 20.1657 18.6673 19.5657C18.6673 19.549 18.6673 19.5323 18.684 19.5157C18.7007 19.449 18.7507 19.4157 18.7673 19.349C18.8673 19.0823 18.984 18.849 19.134 18.6157C19.184 18.5323 19.2507 18.449 19.3007 18.3657C19.3507 18.299 19.384 18.2157 19.434 18.1657L19.4507 18.1823C20.8507 16.349 23.134 15.7823 23.3173 13.7157C23.4673 12.0823 22.3007 10.499 20.7007 10.1657C18.9673 9.79899 17.4007 10.8157 16.8673 12.299C16.634 12.899 16.084 13.3823 15.4007 13.3823H15.0673C14.0673 13.3823 13.334 12.399 13.6173 11.4323C14.534 8.39899 17.5673 6.28232 21.0007 6.78232C23.8173 7.19899 26.0673 9.51566 26.5507 12.3323C27.284 16.399 23.834 17.3823 22.334 19.5823Z" fill="#0259F7"></path></g></svg>